PathFileType	4	(X/Y/Z)	C:/Users/opensim2020/Desktop/walking_exp_matlab/subject02_walking14_straight_01.trc	
DataRate	CameraRate	NumFrames	NumMarkers	Units	OrigDataRate	OrigDataStartFrame	OrigNumFrames	
100.00	100.00	6	41	mm	100.00	439	131	
Frame#	Time	LFHD			RFHD			LBHD			RBHD			C7			T10			CLAV			STRN			RBAK			LSHO			LUPA			LELB			LFRM			LWRA			LWRB			LFIN			RSHO			RUPA			RELB			RFRM			RWRA			RWRB			RFIN			LASI			RASI			LPSI			RPSI			LTHI			LKNE			LTIB			LANK			LHEE			LTOE			RTHI			RKNE			RTIB			RANK			RHEE			RTOE			*39			*40			
		X1	Y1	Z1	X2	Y2	Z2	X3	Y3	Z3	X4	Y4	Z4	X5	Y5	Z5	X6	Y6	Z6	X7	Y7	Z7	X8	Y8	Z8	X9	Y9	Z9	X10	Y10	Z10	X11	Y11	Z11	X12	Y12	Z12	X13	Y13	Z13	X14	Y14	Z14	X15	Y15	Z15	X16	Y16	Z16	X17	Y17	Z17	X18	Y18	Z18	X19	Y19	Z19	X20	Y20	Z20	X21	Y21	Z21	X22	Y22	Z22	X23	Y23	Z23	X24	Y24	Z24	X25	Y25	Z25	X26	Y26	Z26	X27	Y27	Z27	X28	Y28	Z28	X29	Y29	Z29	X30	Y30	Z30	X31	Y31	Z31	X32	Y32	Z32	X33	Y33	Z33	X34	Y34	Z34	X35	Y35	Z35	X36	Y36	Z36	X37	Y37	Z37	X38	Y38	Z38	X39	Y39	Z39	X40	Y40	Z40	X41	Y41	Z41	

99	0.980	1371.23438	362.84039	1741.83496	1515.10303	356.53680	1730.83411	1361.01514	233.00571	1666.62964	1502.90674	213.81529	1653.55322	1433.70654	178.57115	1523.59058	1439.09143	139.60973	1246.20264	1431.31458	321.16632	1465.11328	1445.42773	382.26971	1296.56042	1496.51953	125.55832	1346.16406	1258.85193	258.08337	1500.60852	1168.42493	277.00439	1302.72534	1148.75977	301.51779	1163.84619	1135.97571	347.20224	1039.29761	1171.63171	431.84793	933.99756	1134.68738	390.52338	924.17206	1130.26904	428.24411	870.77472	1623.43738	242.56564	1497.76294	1716.15747	211.51892	1313.60547	1748.70764	232.36859	1169.06470	1765.49512	277.67957	1055.82690	1736.78577	337.59256	935.10413	1778.83728	299.13614	927.56085	1770.38342	341.06650	866.59271	1316.57825	374.26450	991.39508	1567.04663	371.68655	984.92627	1391.50732	165.35321	1034.66968	1507.26453	157.68979	1032.98157	1275.94482	290.07092	675.19543	1310.97021	239.27777	477.16434	1314.39038	168.54143	294.45007	1358.86353	157.62151	71.57838	1408.47424	118.32943	44.68755	1351.36926	313.59415	34.12053	1660.72449	364.77209	688.98773	1645.94800	426.81256	494.39450	1642.02209	348.86539	324.57086	1605.49353	296.83838	139.53380	1542.52405	268.11664	88.86974	1652.69348	423.59375	55.26427	1452.83960	257.13950	1811.21167	-3360.38135	2845.31885	1034.18054 
100	0.990	1371.39209	375.63065	1740.53589	1515.19788	369.46136	1729.30481	1361.16943	245.70215	1665.46375	1503.06616	226.60966	1652.21387	1433.82373	191.45789	1522.52869	1439.05408	151.84341	1245.13745	1431.15930	333.87036	1463.58521	1444.64795	394.63504	1294.77026	1496.50305	138.20723	1345.08484	1258.71948	271.16055	1499.76453	1166.99634	292.38699	1302.62207	1146.45618	321.42288	1164.58667	1133.56921	371.26559	1041.99622	1168.93457	461.02826	940.31354	1132.76147	419.47736	928.47034	1128.08069	459.40701	876.52722	1623.25574	255.72018	1495.48584	1715.93713	223.34810	1311.64819	1747.92188	242.10129	1166.79187	1765.26501	284.64685	1052.71130	1737.61255	341.72781	930.57483	1779.67041	303.03336	924.17792	1771.48975	343.26315	862.00409	1314.97144	384.64230	989.08459	1565.89160	384.91455	983.07385	1392.74048	175.96033	1033.41260	1508.70605	170.08968	1031.78650	1276.06348	297.52316	673.96118	1311.79126	244.16985	476.57571	1315.13147	171.10603	294.87268	1359.22473	157.92087	71.89196	1408.91992	118.55280	45.27638	1351.30774	313.83405	34.01822	1660.60779	380.42477	689.14911	1645.02405	444.05722	493.90176	1643.03882	375.72311	319.37305	1608.49390	335.09933	131.09010	1546.63184	309.81854	77.76183	1655.12415	467.28442	54.92320	1453.18701	270.05185	1809.96643	-3357.37207	2846.06030	1034.41418 
101	1.000	1371.61450	388.64038	1739.25830	1515.37268	382.43707	1727.60999	1361.39307	258.38452	1664.14807	1503.65930	239.49500	1650.85815	1433.85254	204.27319	1521.11438	1439.14893	164.09520	1243.86816	1431.01050	346.61972	1461.87195	1443.91223	407.03333	1292.81628	1496.12195	150.73653	1343.40295	1258.67468	284.32394	1498.76477	1166.22339	308.68732	1302.58997	1144.10938	340.91379	1165.29114	1131.43579	396.33603	1044.43774	1166.33191	489.72861	946.98505	1130.91638	448.26889	933.10596	1126.13403	490.07983	882.63672	1623.61230	269.31479	1493.40649	1715.44409	235.10202	1309.51306	1747.60754	252.24586	1164.80908	1765.48645	291.96356	1049.84912	1738.50537	345.76364	925.93713	1780.68604	307.01923	920.95642	1772.93311	345.68762	857.80994	1313.61646	395.28143	986.71112	1565.14697	398.21793	981.19983	1394.20251	187.35300	1031.68213	1510.05432	182.65024	1030.17896	1276.18860	304.95728	672.67511	1312.41602	249.48727	475.83243	1315.85876	173.91161	295.22507	1359.57581	158.24347	72.27470	1409.35583	118.84934	45.66729	1351.21606	314.00543	33.89463	1660.56836	395.66107	688.91870	1643.89978	460.50146	492.88678	1644.32678	402.48306	314.31250	1611.87012	373.76599	123.40262	1550.39453	350.48575	69.00688	1657.42029	510.75641	55.40591	1453.59082	283.04181	1808.44543	-3360.46802	2845.29395	1034.25146 
102	1.010	1371.85815	401.57480	1737.77209	1515.47681	395.48395	1725.67578	1361.43835	271.06259	1662.50024	1503.77771	252.57478	1649.00183	1433.96326	217.20435	1519.47888	1439.52991	176.44662	1242.38086	1430.92407	359.43951	1459.95532	1443.19055	419.50305	1290.69250	1496.27148	163.60327	1341.82605	1258.72131	297.52252	1497.58386	1165.26099	324.46048	1302.36560	1142.43823	360.53406	1166.22156	1129.47021	419.96515	1047.27881	1164.08447	517.78723	953.72302	1128.90955	476.30673	937.98718	1124.32263	520.27081	889.21167	1623.64270	282.78421	1491.10913	1714.70532	246.67389	1307.11450	1746.88440	262.03806	1162.47998	1765.70105	299.09604	1046.90039	1739.73389	350.17889	921.64581	1781.84741	311.19983	917.96387	1774.71973	348.35214	853.87158	1312.49609	405.93402	984.32953	1564.72754	411.58450	979.22247	1395.76941	198.91649	1029.61609	1511.45007	195.31319	1028.28137	1276.26147	312.61307	671.24512	1313.03394	254.91486	475.10806	1316.60132	176.96672	295.55157	1359.99756	158.67336	72.67673	1409.73462	118.89692	46.51300	1351.12878	314.16519	33.79303	1660.30212	410.44528	687.96155	1642.53064	476.20059	491.20276	1645.88391	429.10345	309.43069	1615.74463	412.74231	116.83946	1554.88135	392.06488	60.83462	1660.04980	554.16888	57.16313	1454.05151	296.07950	1806.67664	-3357.50098	2845.97754	1034.44629 
103	1.020	1371.96924	414.18121	1735.54065	1515.69592	408.64584	1723.54346	1361.94861	283.92999	1660.87170	1503.80798	265.46942	1646.92627	1434.06970	230.19362	1517.60242	1440.10193	188.88612	1240.73779	1430.87793	372.38315	1457.92395	1442.62659	432.18896	1288.49036	1496.11060	176.37164	1339.82703	1258.86731	310.78442	1496.23584	1164.50195	340.18793	1302.17639	1140.43250	379.62671	1166.92480	1128.17200	443.82104	1050.20178	1162.12415	545.03638	960.90594	1127.68787	504.26385	943.19635	1122.73816	549.91119	896.14905	1623.51123	296.15198	1488.62805	1714.46521	258.69119	1305.04602	1746.70227	272.24380	1160.55359	1766.42847	306.62753	1044.37341	1741.33411	354.91940	917.69318	1783.13367	315.56091	915.14612	1776.78943	351.41431	850.22369	1311.45557	416.80844	982.02582	1564.49597	425.00983	977.24579	1397.43628	210.54883	1027.35144	1512.82605	208.04008	1026.07397	1276.37122	320.12833	669.94751	1313.73193	260.55084	474.36749	1317.25012	180.21678	295.91034	1360.37769	159.15991	73.17441	1410.40479	119.47675	47.10776	1350.94519	314.21204	33.78354	1660.65881	425.28839	686.94946	1641.91943	491.66269	489.72470	1647.53479	455.56146	305.06424	1619.30090	451.12903	111.16865	1559.62708	433.42685	53.83472	1662.45068	596.93896	60.18529	1454.52966	309.18506	1804.78674	-3357.56494	2846.04199	1034.43860 
104	1.030	1372.22961	427.19678	1733.64087	1515.89087	421.83939	1721.26978	1362.27808	296.90515	1658.92920	1504.16956	278.60953	1644.82214	1434.08191	243.09669	1515.48206	1440.82983	201.41440	1238.92224	1430.87695	385.42282	1455.69409	1442.12402	444.97992	1286.12964	1496.43982	189.30215	1338.01843	1259.11621	324.02945	1494.66394	1164.07947	356.42267	1301.97864	1138.91492	398.50385	1167.86560	1126.22485	466.89325	1053.66357	1160.27344	571.78217	968.18494	1126.00696	531.44513	948.59821	1121.23584	578.85785	903.45020	1623.88025	309.80197	1486.33289	1714.13782	270.63300	1302.85510	1746.28601	282.35492	1158.42468	1766.69080	313.98834	1041.66602	1743.17249	360.00934	913.95532	1784.58179	320.21002	912.55701	1779.07568	354.74969	846.91083	1311.19348	428.49225	980.20740	1564.49744	438.48230	975.32709	1399.20459	222.33720	1024.82861	1514.20325	220.81300	1023.63617	1276.55945	327.66400	668.63281	1314.40198	266.25726	473.54581	1317.88220	183.62599	296.26013	1360.74670	159.60188	73.70993	1410.91431	119.75021	47.93817	1350.83386	314.38120	33.70601	1660.56116	439.53943	685.41040	1641.08569	506.35565	487.67288	1649.18079	481.61929	301.21640	1622.91992	489.42181	106.93211	1563.40991	474.70358	47.83178	1664.45752	638.71405	64.84158	1455.31189	322.44614	1802.83765	-3357.26343	2845.95850	1034.38428 
